<mxfile host="app.diagrams.net" modified="2022-08-04T09:04:43.699Z" agent="5.0 (Macintosh; Intel Mac OS X 10_15_7) AppleWebKit/537.36 (KHTML, like Gecko) Chrome/103.0.0.0 Safari/537.36" etag="KK-xTPmzE0T2Nkr-Ll4O" version="20.0.4" type="github">
  <diagram id="CBXjzga55jaLRlvK6xoz" name="Page-1">
    <mxGraphModel dx="2431" dy="811" grid="1" gridSize="10" guides="1" tooltips="1" connect="1" arrows="1" fold="1" page="1" pageScale="1" pageWidth="850" pageHeight="1100" math="0" shadow="0">
      <root>
        <mxCell id="0" />
        <mxCell id="1" parent="0" />
        <mxCell id="NtMriZ6diyoZdi4Wk9FT-16" value="" style="sketch=0;html=1;dashed=0;whitespace=wrap;fillColor=#2875E2;strokeColor=#ffffff;points=[[0.005,0.63,0],[0.1,0.2,0],[0.9,0.2,0],[0.5,0,0],[0.995,0.63,0],[0.72,0.99,0],[0.5,1,0],[0.28,0.99,0]];shape=mxgraph.kubernetes.icon;prIcon=master" parent="1" vertex="1">
          <mxGeometry x="400" y="130" width="130" height="100" as="geometry" />
        </mxCell>
        <mxCell id="NtMriZ6diyoZdi4Wk9FT-17" value="" style="verticalLabelPosition=bottom;html=1;verticalAlign=top;strokeWidth=1;align=center;outlineConnect=0;dashed=0;outlineConnect=0;shape=mxgraph.aws3d.worker;fillColor=#ECECEC;strokeColor=#5E5E5E;aspect=fixed;" parent="1" vertex="1">
          <mxGeometry x="370" y="310" width="74" height="50" as="geometry" />
        </mxCell>
        <mxCell id="NtMriZ6diyoZdi4Wk9FT-18" value="" style="verticalLabelPosition=bottom;html=1;verticalAlign=top;strokeWidth=1;align=center;outlineConnect=0;dashed=0;outlineConnect=0;shape=mxgraph.aws3d.worker;fillColor=#ECECEC;strokeColor=#5E5E5E;aspect=fixed;" parent="1" vertex="1">
          <mxGeometry x="140" y="330" width="74" height="50" as="geometry" />
        </mxCell>
        <mxCell id="NtMriZ6diyoZdi4Wk9FT-19" value="" style="verticalLabelPosition=bottom;html=1;verticalAlign=top;strokeWidth=1;align=center;outlineConnect=0;dashed=0;outlineConnect=0;shape=mxgraph.aws3d.worker;fillColor=#ECECEC;strokeColor=#5E5E5E;aspect=fixed;" parent="1" vertex="1">
          <mxGeometry x="590" y="320" width="74" height="50" as="geometry" />
        </mxCell>
        <mxCell id="NtMriZ6diyoZdi4Wk9FT-21" value="&lt;h2&gt;kubelet&lt;br&gt;cri&lt;br&gt;kube proxy&lt;/h2&gt;" style="text;html=1;strokeColor=none;fillColor=none;align=center;verticalAlign=middle;whiteSpace=wrap;rounded=0;" parent="1" vertex="1">
          <mxGeometry x="540" y="380" width="200" height="100" as="geometry" />
        </mxCell>
        <mxCell id="NtMriZ6diyoZdi4Wk9FT-22" value="&lt;h3&gt;api server&lt;br&gt;schedular&lt;br&gt;control manager&lt;br&gt;etcd&lt;/h3&gt;" style="text;html=1;strokeColor=none;fillColor=none;align=center;verticalAlign=middle;whiteSpace=wrap;rounded=0;" parent="1" vertex="1">
          <mxGeometry x="540" y="120" width="200" height="100" as="geometry" />
        </mxCell>
        <mxCell id="NtMriZ6diyoZdi4Wk9FT-23" value="&lt;h5&gt;kubelet&lt;br&gt;cri&lt;br&gt;kube proxy&lt;br&gt;&lt;/h5&gt;&lt;h3&gt;CNI - Contianer Network interface&lt;/h3&gt;" style="text;html=1;strokeColor=none;fillColor=none;align=center;verticalAlign=middle;whiteSpace=wrap;rounded=0;" parent="1" vertex="1">
          <mxGeometry x="60" y="390" width="200" height="100" as="geometry" />
        </mxCell>
        <mxCell id="NtMriZ6diyoZdi4Wk9FT-24" value="&lt;h3&gt;kubelet&lt;br&gt;cri&lt;br&gt;kube proxy&lt;/h3&gt;" style="text;html=1;strokeColor=none;fillColor=none;align=center;verticalAlign=middle;whiteSpace=wrap;rounded=0;" parent="1" vertex="1">
          <mxGeometry x="310" y="370" width="200" height="100" as="geometry" />
        </mxCell>
        <mxCell id="NtMriZ6diyoZdi4Wk9FT-25" value="" style="endArrow=classic;startArrow=classic;html=1;rounded=0;" parent="1" source="NtMriZ6diyoZdi4Wk9FT-17" edge="1">
          <mxGeometry width="50" height="50" relative="1" as="geometry">
            <mxPoint x="410" y="270" as="sourcePoint" />
            <mxPoint x="460" y="220" as="targetPoint" />
          </mxGeometry>
        </mxCell>
        <mxCell id="NtMriZ6diyoZdi4Wk9FT-28" value="" style="endArrow=classic;startArrow=classic;html=1;rounded=0;entryX=0.162;entryY=0.735;entryDx=0;entryDy=0;entryPerimeter=0;" parent="1" source="NtMriZ6diyoZdi4Wk9FT-18" target="NtMriZ6diyoZdi4Wk9FT-16" edge="1">
          <mxGeometry width="50" height="50" relative="1" as="geometry">
            <mxPoint x="400" y="350" as="sourcePoint" />
            <mxPoint x="450" y="300" as="targetPoint" />
          </mxGeometry>
        </mxCell>
        <mxCell id="NtMriZ6diyoZdi4Wk9FT-31" value="" style="endArrow=classic;startArrow=classic;html=1;rounded=0;entryX=0.708;entryY=0.925;entryDx=0;entryDy=0;entryPerimeter=0;" parent="1" source="NtMriZ6diyoZdi4Wk9FT-19" target="NtMriZ6diyoZdi4Wk9FT-16" edge="1">
          <mxGeometry width="50" height="50" relative="1" as="geometry">
            <mxPoint x="400" y="350" as="sourcePoint" />
            <mxPoint x="450" y="300" as="targetPoint" />
          </mxGeometry>
        </mxCell>
        <mxCell id="NtMriZ6diyoZdi4Wk9FT-36" style="edgeStyle=orthogonalEdgeStyle;rounded=0;orthogonalLoop=1;jettySize=auto;html=1;exitX=1;exitY=0.5;exitDx=0;exitDy=0;" parent="1" source="NtMriZ6diyoZdi4Wk9FT-32" target="NtMriZ6diyoZdi4Wk9FT-22" edge="1">
          <mxGeometry relative="1" as="geometry" />
        </mxCell>
        <mxCell id="NtMriZ6diyoZdi4Wk9FT-32" value="kubectl" style="rounded=0;whiteSpace=wrap;html=1;" parent="1" vertex="1">
          <mxGeometry x="94" y="50" width="126" height="60" as="geometry" />
        </mxCell>
        <mxCell id="EqZx8BdncKICett_EGlK-1" value="&lt;h3&gt;Kubeproxy - communication for inter communication&amp;nbsp;&lt;br&gt;CRI - container runtime interface&lt;br&gt;CNI- COntainer Network interface&lt;/h3&gt;" style="text;html=1;strokeColor=none;fillColor=none;align=center;verticalAlign=middle;whiteSpace=wrap;rounded=0;" parent="1" vertex="1">
          <mxGeometry x="7" y="520" width="340" height="170" as="geometry" />
        </mxCell>
        <mxCell id="EqZx8BdncKICett_EGlK-4" value="&lt;h3&gt;calico&lt;/h3&gt;&lt;h3&gt;fannel&lt;br&gt;wavenet&lt;/h3&gt;" style="text;html=1;align=center;verticalAlign=middle;resizable=0;points=[];autosize=1;strokeColor=none;fillColor=none;" parent="1" vertex="1">
          <mxGeometry x="65" y="685" width="80" height="110" as="geometry" />
        </mxCell>
        <mxCell id="EqZx8BdncKICett_EGlK-5" value="&lt;h2&gt;KUbe proxy - will provide the mode of data transmision&amp;nbsp;&lt;/h2&gt;" style="text;html=1;align=center;verticalAlign=middle;resizable=0;points=[];autosize=1;strokeColor=none;fillColor=none;" parent="1" vertex="1">
          <mxGeometry x="94" y="490" width="500" height="60" as="geometry" />
        </mxCell>
        <mxCell id="EqZx8BdncKICett_EGlK-6" value="" style="shape=cylinder3;whiteSpace=wrap;html=1;boundedLbl=1;backgroundOutline=1;size=15;" parent="1" vertex="1">
          <mxGeometry x="690" y="120" width="30" height="40" as="geometry" />
        </mxCell>
        <mxCell id="EqZx8BdncKICett_EGlK-7" value="" style="shape=cylinder3;whiteSpace=wrap;html=1;boundedLbl=1;backgroundOutline=1;size=15;" parent="1" vertex="1">
          <mxGeometry x="730" y="110" width="30" height="40" as="geometry" />
        </mxCell>
        <mxCell id="EqZx8BdncKICett_EGlK-8" value="" style="shape=cylinder3;whiteSpace=wrap;html=1;boundedLbl=1;backgroundOutline=1;size=15;" parent="1" vertex="1">
          <mxGeometry x="740" y="160" width="30" height="40" as="geometry" />
        </mxCell>
        <mxCell id="EqZx8BdncKICett_EGlK-9" value="" style="shape=cylinder3;whiteSpace=wrap;html=1;boundedLbl=1;backgroundOutline=1;size=15;" parent="1" vertex="1">
          <mxGeometry x="700" y="160" width="30" height="40" as="geometry" />
        </mxCell>
        <mxCell id="4nlPYvr7-jDKzYdwGR_k-1" value="Actor" style="shape=umlActor;verticalLabelPosition=bottom;verticalAlign=top;html=1;outlineConnect=0;" vertex="1" parent="1">
          <mxGeometry x="35" y="50" width="30" height="60" as="geometry" />
        </mxCell>
        <mxCell id="4nlPYvr7-jDKzYdwGR_k-2" value="1 MASTER" style="whiteSpace=wrap;html=1;" vertex="1" parent="1">
          <mxGeometry x="110" y="910" width="120" height="60" as="geometry" />
        </mxCell>
        <mxCell id="4nlPYvr7-jDKzYdwGR_k-4" value="&lt;h1&gt;LAB SETUP&lt;/h1&gt;" style="text;html=1;align=center;verticalAlign=middle;resizable=0;points=[];autosize=1;strokeColor=none;fillColor=none;" vertex="1" parent="1">
          <mxGeometry x="300" y="805" width="160" height="70" as="geometry" />
        </mxCell>
        <mxCell id="4nlPYvr7-jDKzYdwGR_k-5" value="2 WORKER" style="whiteSpace=wrap;html=1;" vertex="1" parent="1">
          <mxGeometry x="580" y="910" width="120" height="60" as="geometry" />
        </mxCell>
        <mxCell id="4nlPYvr7-jDKzYdwGR_k-6" value="1&lt;br&gt;&amp;nbsp;WORKER" style="whiteSpace=wrap;html=1;" vertex="1" parent="1">
          <mxGeometry x="340" y="910" width="120" height="60" as="geometry" />
        </mxCell>
        <mxCell id="4nlPYvr7-jDKzYdwGR_k-10" value="" style="rounded=1;whiteSpace=wrap;html=1;" vertex="1" parent="1">
          <mxGeometry x="560" y="1120" width="230" height="150" as="geometry" />
        </mxCell>
        <mxCell id="4nlPYvr7-jDKzYdwGR_k-8" value="" style="shape=cylinder3;whiteSpace=wrap;html=1;boundedLbl=1;backgroundOutline=1;size=15;" vertex="1" parent="1">
          <mxGeometry x="120" y="1180" width="60" height="80" as="geometry" />
        </mxCell>
        <mxCell id="4nlPYvr7-jDKzYdwGR_k-26" style="edgeStyle=orthogonalEdgeStyle;rounded=0;orthogonalLoop=1;jettySize=auto;html=1;" edge="1" parent="1" source="4nlPYvr7-jDKzYdwGR_k-9" target="4nlPYvr7-jDKzYdwGR_k-18">
          <mxGeometry relative="1" as="geometry" />
        </mxCell>
        <mxCell id="4nlPYvr7-jDKzYdwGR_k-9" value="App&lt;br&gt;" style="shape=cylinder3;whiteSpace=wrap;html=1;boundedLbl=1;backgroundOutline=1;size=15;" vertex="1" parent="1">
          <mxGeometry x="594" y="1170" width="46" height="80" as="geometry" />
        </mxCell>
        <mxCell id="4nlPYvr7-jDKzYdwGR_k-12" value="Container&lt;br&gt;" style="text;html=1;align=center;verticalAlign=middle;resizable=0;points=[];autosize=1;strokeColor=none;fillColor=none;" vertex="1" parent="1">
          <mxGeometry x="110" y="1140" width="80" height="30" as="geometry" />
        </mxCell>
        <mxCell id="4nlPYvr7-jDKzYdwGR_k-13" value="Pod" style="text;html=1;align=center;verticalAlign=middle;resizable=0;points=[];autosize=1;strokeColor=none;fillColor=none;" vertex="1" parent="1">
          <mxGeometry x="607" y="1125" width="40" height="30" as="geometry" />
        </mxCell>
        <mxCell id="4nlPYvr7-jDKzYdwGR_k-14" value="&lt;h1&gt;diff between container - pod&amp;nbsp;&lt;/h1&gt;" style="text;html=1;align=center;verticalAlign=middle;resizable=0;points=[];autosize=1;strokeColor=none;fillColor=none;" vertex="1" parent="1">
          <mxGeometry x="214" y="1000" width="350" height="70" as="geometry" />
        </mxCell>
        <mxCell id="4nlPYvr7-jDKzYdwGR_k-18" value="splunk" style="shape=cylinder3;whiteSpace=wrap;html=1;boundedLbl=1;backgroundOutline=1;size=15;" vertex="1" parent="1">
          <mxGeometry x="710" y="1170" width="60" height="80" as="geometry" />
        </mxCell>
        <mxCell id="4nlPYvr7-jDKzYdwGR_k-19" value="splunk" style="shape=cylinder3;whiteSpace=wrap;html=1;boundedLbl=1;backgroundOutline=1;size=15;" vertex="1" parent="1">
          <mxGeometry x="240" y="1170" width="60" height="80" as="geometry" />
        </mxCell>
        <mxCell id="4nlPYvr7-jDKzYdwGR_k-20" value="" style="shape=flexArrow;endArrow=classic;startArrow=classic;html=1;rounded=0;exitX=1;exitY=0.5;exitDx=0;exitDy=0;exitPerimeter=0;entryX=0;entryY=0.5;entryDx=0;entryDy=0;entryPerimeter=0;" edge="1" parent="1" source="4nlPYvr7-jDKzYdwGR_k-8" target="4nlPYvr7-jDKzYdwGR_k-19">
          <mxGeometry width="100" height="100" relative="1" as="geometry">
            <mxPoint x="180" y="1290" as="sourcePoint" />
            <mxPoint x="280" y="1190" as="targetPoint" />
          </mxGeometry>
        </mxCell>
        <mxCell id="4nlPYvr7-jDKzYdwGR_k-21" value="ip" style="text;html=1;align=center;verticalAlign=middle;resizable=0;points=[];autosize=1;strokeColor=none;fillColor=none;" vertex="1" parent="1">
          <mxGeometry x="135" y="1260" width="30" height="30" as="geometry" />
        </mxCell>
        <mxCell id="4nlPYvr7-jDKzYdwGR_k-22" value="ip" style="text;html=1;align=center;verticalAlign=middle;resizable=0;points=[];autosize=1;strokeColor=none;fillColor=none;" vertex="1" parent="1">
          <mxGeometry x="260" y="1240" width="30" height="30" as="geometry" />
        </mxCell>
        <mxCell id="4nlPYvr7-jDKzYdwGR_k-23" value="ip" style="text;html=1;align=center;verticalAlign=middle;resizable=0;points=[];autosize=1;strokeColor=none;fillColor=none;" vertex="1" parent="1">
          <mxGeometry x="594" y="1270" width="30" height="30" as="geometry" />
        </mxCell>
        <mxCell id="4nlPYvr7-jDKzYdwGR_k-25" style="edgeStyle=orthogonalEdgeStyle;rounded=0;orthogonalLoop=1;jettySize=auto;html=1;entryX=0.5;entryY=1;entryDx=0;entryDy=0;entryPerimeter=0;" edge="1" parent="1" source="4nlPYvr7-jDKzYdwGR_k-24" target="4nlPYvr7-jDKzYdwGR_k-9">
          <mxGeometry relative="1" as="geometry" />
        </mxCell>
        <mxCell id="4nlPYvr7-jDKzYdwGR_k-24" value="internet" style="ellipse;whiteSpace=wrap;html=1;" vertex="1" parent="1">
          <mxGeometry x="460" y="1290" width="90" height="80" as="geometry" />
        </mxCell>
        <mxCell id="4nlPYvr7-jDKzYdwGR_k-27" value="multi container pod" style="text;html=1;align=center;verticalAlign=middle;resizable=0;points=[];autosize=1;strokeColor=none;fillColor=none;" vertex="1" parent="1">
          <mxGeometry x="580" y="1075" width="120" height="30" as="geometry" />
        </mxCell>
        <mxCell id="4nlPYvr7-jDKzYdwGR_k-28" value="" style="rounded=0;whiteSpace=wrap;html=1;" vertex="1" parent="1">
          <mxGeometry x="110" y="1485" width="660" height="220" as="geometry" />
        </mxCell>
        <mxCell id="4nlPYvr7-jDKzYdwGR_k-29" value="&lt;h1&gt;Namespace&lt;/h1&gt;" style="text;html=1;align=center;verticalAlign=middle;resizable=0;points=[];autosize=1;strokeColor=none;fillColor=none;" vertex="1" parent="1">
          <mxGeometry x="350" y="1410" width="160" height="70" as="geometry" />
        </mxCell>
        <mxCell id="4nlPYvr7-jDKzYdwGR_k-30" value="pod1" style="whiteSpace=wrap;html=1;" vertex="1" parent="1">
          <mxGeometry x="130" y="1525" width="120" height="60" as="geometry" />
        </mxCell>
        <mxCell id="4nlPYvr7-jDKzYdwGR_k-31" value="" style="whiteSpace=wrap;html=1;" vertex="1" parent="1">
          <mxGeometry x="140" y="1625" width="120" height="60" as="geometry" />
        </mxCell>
        <mxCell id="4nlPYvr7-jDKzYdwGR_k-32" value="" style="whiteSpace=wrap;html=1;" vertex="1" parent="1">
          <mxGeometry x="370" y="1625" width="120" height="60" as="geometry" />
        </mxCell>
        <mxCell id="4nlPYvr7-jDKzYdwGR_k-33" value="" style="whiteSpace=wrap;html=1;" vertex="1" parent="1">
          <mxGeometry x="370" y="1515" width="120" height="60" as="geometry" />
        </mxCell>
        <mxCell id="4nlPYvr7-jDKzYdwGR_k-34" value="" style="whiteSpace=wrap;html=1;" vertex="1" parent="1">
          <mxGeometry x="580" y="1535" width="120" height="60" as="geometry" />
        </mxCell>
        <mxCell id="4nlPYvr7-jDKzYdwGR_k-35" value="&lt;h1&gt;Service&lt;/h1&gt;" style="text;html=1;align=center;verticalAlign=middle;resizable=0;points=[];autosize=1;strokeColor=none;fillColor=none;" vertex="1" parent="1">
          <mxGeometry x="-420" y="1740" width="110" height="70" as="geometry" />
        </mxCell>
        <mxCell id="4nlPYvr7-jDKzYdwGR_k-38" value="pod" style="whiteSpace=wrap;html=1;" vertex="1" parent="1">
          <mxGeometry x="335" y="1860" width="120" height="60" as="geometry" />
        </mxCell>
        <mxCell id="4nlPYvr7-jDKzYdwGR_k-40" style="edgeStyle=orthogonalEdgeStyle;rounded=0;orthogonalLoop=1;jettySize=auto;html=1;exitX=0.5;exitY=0;exitDx=0;exitDy=0;entryX=0.633;entryY=0.975;entryDx=0;entryDy=0;entryPerimeter=0;" edge="1" parent="1" source="4nlPYvr7-jDKzYdwGR_k-39" target="4nlPYvr7-jDKzYdwGR_k-38">
          <mxGeometry relative="1" as="geometry" />
        </mxCell>
        <mxCell id="4nlPYvr7-jDKzYdwGR_k-39" value="pod" style="whiteSpace=wrap;html=1;" vertex="1" parent="1">
          <mxGeometry x="350" y="1980" width="120" height="60" as="geometry" />
        </mxCell>
        <mxCell id="4nlPYvr7-jDKzYdwGR_k-41" value="access data from internet" style="text;html=1;align=center;verticalAlign=middle;resizable=0;points=[];autosize=1;strokeColor=none;fillColor=none;" vertex="1" parent="1">
          <mxGeometry x="214" y="1800" width="160" height="30" as="geometry" />
        </mxCell>
        <mxCell id="4nlPYvr7-jDKzYdwGR_k-43" value="&lt;h1&gt;Type:&lt;/h1&gt;&lt;h1&gt;Node Port - range between port (30000-32767)&lt;/h1&gt;&lt;h1&gt;CLusterIP - its used to route the traffic internally&lt;/h1&gt;" style="text;html=1;align=center;verticalAlign=middle;resizable=0;points=[];autosize=1;strokeColor=none;fillColor=none;" vertex="1" parent="1">
          <mxGeometry x="-655" y="1840" width="570" height="160" as="geometry" />
        </mxCell>
        <mxCell id="4nlPYvr7-jDKzYdwGR_k-44" value="&lt;h2&gt;NodePort: Its expose the application on public - browser&lt;/h2&gt;" style="text;html=1;align=center;verticalAlign=middle;resizable=0;points=[];autosize=1;strokeColor=none;fillColor=none;" vertex="1" parent="1">
          <mxGeometry x="-270" y="1855" width="510" height="60" as="geometry" />
        </mxCell>
        <mxCell id="4nlPYvr7-jDKzYdwGR_k-45" value="" style="whiteSpace=wrap;html=1;" vertex="1" parent="1">
          <mxGeometry x="-90" y="2310" width="160" height="180" as="geometry" />
        </mxCell>
        <mxCell id="4nlPYvr7-jDKzYdwGR_k-46" value="" style="whiteSpace=wrap;html=1;" vertex="1" parent="1">
          <mxGeometry x="205" y="2312.5" width="185" height="157.5" as="geometry" />
        </mxCell>
        <mxCell id="4nlPYvr7-jDKzYdwGR_k-47" value="" style="whiteSpace=wrap;html=1;" vertex="1" parent="1">
          <mxGeometry x="564" y="2300" width="240" height="340" as="geometry" />
        </mxCell>
        <mxCell id="4nlPYvr7-jDKzYdwGR_k-48" value="&lt;h1&gt;TYPES Of Multicontainer pod&lt;/h1&gt;" style="text;html=1;align=center;verticalAlign=middle;resizable=0;points=[];autosize=1;strokeColor=none;fillColor=none;" vertex="1" parent="1">
          <mxGeometry x="80" y="2195" width="360" height="70" as="geometry" />
        </mxCell>
        <mxCell id="4nlPYvr7-jDKzYdwGR_k-49" value="&lt;h2&gt;sidecar&lt;/h2&gt;" style="text;html=1;align=center;verticalAlign=middle;resizable=0;points=[];autosize=1;strokeColor=none;fillColor=none;" vertex="1" parent="1">
          <mxGeometry x="-105" y="2260" width="90" height="60" as="geometry" />
        </mxCell>
        <mxCell id="4nlPYvr7-jDKzYdwGR_k-50" value="&lt;h2&gt;ambasdor&lt;/h2&gt;" style="text;html=1;align=center;verticalAlign=middle;resizable=0;points=[];autosize=1;strokeColor=none;fillColor=none;" vertex="1" parent="1">
          <mxGeometry x="225" y="2260" width="110" height="60" as="geometry" />
        </mxCell>
        <mxCell id="4nlPYvr7-jDKzYdwGR_k-51" value="&lt;h2&gt;Adaptor&lt;/h2&gt;" style="text;html=1;align=center;verticalAlign=middle;resizable=0;points=[];autosize=1;strokeColor=none;fillColor=none;" vertex="1" parent="1">
          <mxGeometry x="605" y="2250" width="90" height="60" as="geometry" />
        </mxCell>
        <mxCell id="4nlPYvr7-jDKzYdwGR_k-52" value="maven&lt;br&gt;java&lt;br&gt;git&lt;br&gt;" style="shape=cylinder3;whiteSpace=wrap;html=1;boundedLbl=1;backgroundOutline=1;size=15;" vertex="1" parent="1">
          <mxGeometry x="-80" y="2325" width="40" height="95" as="geometry" />
        </mxCell>
        <mxCell id="4nlPYvr7-jDKzYdwGR_k-54" style="edgeStyle=orthogonalEdgeStyle;rounded=0;orthogonalLoop=1;jettySize=auto;html=1;entryX=0.5;entryY=1;entryDx=0;entryDy=0;entryPerimeter=0;" edge="1" parent="1" source="4nlPYvr7-jDKzYdwGR_k-53" target="4nlPYvr7-jDKzYdwGR_k-52">
          <mxGeometry relative="1" as="geometry" />
        </mxCell>
        <mxCell id="4nlPYvr7-jDKzYdwGR_k-53" value="maven&lt;br&gt;git&lt;br&gt;s" style="shape=cylinder3;whiteSpace=wrap;html=1;boundedLbl=1;backgroundOutline=1;size=15;" vertex="1" parent="1">
          <mxGeometry x="7" y="2325" width="40" height="75" as="geometry" />
        </mxCell>
        <mxCell id="4nlPYvr7-jDKzYdwGR_k-69" style="edgeStyle=orthogonalEdgeStyle;rounded=0;orthogonalLoop=1;jettySize=auto;html=1;exitX=0.5;exitY=0;exitDx=0;exitDy=0;exitPerimeter=0;entryX=0;entryY=0.5;entryDx=0;entryDy=0;" edge="1" parent="1" source="4nlPYvr7-jDKzYdwGR_k-57" target="4nlPYvr7-jDKzYdwGR_k-45">
          <mxGeometry relative="1" as="geometry" />
        </mxCell>
        <mxCell id="4nlPYvr7-jDKzYdwGR_k-57" value="Actor" style="shape=umlActor;verticalLabelPosition=bottom;verticalAlign=top;html=1;outlineConnect=0;" vertex="1" parent="1">
          <mxGeometry x="-155" y="2530" width="30" height="60" as="geometry" />
        </mxCell>
        <mxCell id="4nlPYvr7-jDKzYdwGR_k-58" value="primary" style="shape=cylinder3;whiteSpace=wrap;html=1;boundedLbl=1;backgroundOutline=1;size=15;" vertex="1" parent="1">
          <mxGeometry x="220" y="2332.5" width="60" height="80" as="geometry" />
        </mxCell>
        <mxCell id="4nlPYvr7-jDKzYdwGR_k-60" style="edgeStyle=orthogonalEdgeStyle;rounded=0;orthogonalLoop=1;jettySize=auto;html=1;" edge="1" parent="1" source="4nlPYvr7-jDKzYdwGR_k-59" target="4nlPYvr7-jDKzYdwGR_k-58">
          <mxGeometry relative="1" as="geometry" />
        </mxCell>
        <mxCell id="4nlPYvr7-jDKzYdwGR_k-59" value="Secondary" style="shape=cylinder3;whiteSpace=wrap;html=1;boundedLbl=1;backgroundOutline=1;size=15;" vertex="1" parent="1">
          <mxGeometry x="320" y="2370" width="60" height="80" as="geometry" />
        </mxCell>
        <mxCell id="4nlPYvr7-jDKzYdwGR_k-68" style="edgeStyle=orthogonalEdgeStyle;rounded=0;orthogonalLoop=1;jettySize=auto;html=1;exitX=0.5;exitY=0;exitDx=0;exitDy=0;exitPerimeter=0;entryX=0.47;entryY=1.019;entryDx=0;entryDy=0;entryPerimeter=0;" edge="1" parent="1" source="4nlPYvr7-jDKzYdwGR_k-62" target="4nlPYvr7-jDKzYdwGR_k-46">
          <mxGeometry relative="1" as="geometry" />
        </mxCell>
        <mxCell id="4nlPYvr7-jDKzYdwGR_k-62" value="Actor" style="shape=umlActor;verticalLabelPosition=bottom;verticalAlign=top;html=1;outlineConnect=0;" vertex="1" parent="1">
          <mxGeometry x="220" y="2560" width="30" height="60" as="geometry" />
        </mxCell>
        <mxCell id="4nlPYvr7-jDKzYdwGR_k-63" value="slog" style="shape=cylinder3;whiteSpace=wrap;html=1;boundedLbl=1;backgroundOutline=1;size=15;" vertex="1" parent="1">
          <mxGeometry x="720" y="2500" width="60" height="80" as="geometry" />
        </mxCell>
        <mxCell id="4nlPYvr7-jDKzYdwGR_k-74" style="edgeStyle=orthogonalEdgeStyle;rounded=0;orthogonalLoop=1;jettySize=auto;html=1;exitX=1;exitY=0;exitDx=0;exitDy=52.5;exitPerimeter=0;" edge="1" parent="1" source="4nlPYvr7-jDKzYdwGR_k-65" target="4nlPYvr7-jDKzYdwGR_k-63">
          <mxGeometry relative="1" as="geometry" />
        </mxCell>
        <mxCell id="4nlPYvr7-jDKzYdwGR_k-65" value="p" style="shape=cylinder3;whiteSpace=wrap;html=1;boundedLbl=1;backgroundOutline=1;size=15;" vertex="1" parent="1">
          <mxGeometry x="587" y="2325" width="60" height="80" as="geometry" />
        </mxCell>
        <mxCell id="4nlPYvr7-jDKzYdwGR_k-72" style="edgeStyle=orthogonalEdgeStyle;rounded=0;orthogonalLoop=1;jettySize=auto;html=1;entryX=0.004;entryY=0.215;entryDx=0;entryDy=0;entryPerimeter=0;" edge="1" parent="1" source="4nlPYvr7-jDKzYdwGR_k-71" target="4nlPYvr7-jDKzYdwGR_k-47">
          <mxGeometry relative="1" as="geometry">
            <mxPoint x="495" y="2560" as="targetPoint" />
          </mxGeometry>
        </mxCell>
        <mxCell id="4nlPYvr7-jDKzYdwGR_k-71" value="Actor" style="shape=umlActor;verticalLabelPosition=bottom;verticalAlign=top;html=1;outlineConnect=0;" vertex="1" parent="1">
          <mxGeometry x="480" y="2640" width="30" height="50" as="geometry" />
        </mxCell>
        <mxCell id="4nlPYvr7-jDKzYdwGR_k-75" value="&lt;h2&gt;Labels&lt;/h2&gt;" style="text;html=1;align=center;verticalAlign=middle;resizable=0;points=[];autosize=1;strokeColor=none;fillColor=none;" vertex="1" parent="1">
          <mxGeometry x="190" y="2730" width="80" height="60" as="geometry" />
        </mxCell>
        <mxCell id="4nlPYvr7-jDKzYdwGR_k-76" value="owner=gop" style="shape=cylinder3;whiteSpace=wrap;html=1;boundedLbl=1;backgroundOutline=1;size=15;" vertex="1" parent="1">
          <mxGeometry x="90" y="2830" width="60" height="80" as="geometry" />
        </mxCell>
        <mxCell id="4nlPYvr7-jDKzYdwGR_k-77" value="owner=gop" style="shape=cylinder3;whiteSpace=wrap;html=1;boundedLbl=1;backgroundOutline=1;size=15;" vertex="1" parent="1">
          <mxGeometry x="205" y="2830" width="60" height="80" as="geometry" />
        </mxCell>
        <mxCell id="4nlPYvr7-jDKzYdwGR_k-78" value="env=dev" style="shape=cylinder3;whiteSpace=wrap;html=1;boundedLbl=1;backgroundOutline=1;size=15;" vertex="1" parent="1">
          <mxGeometry x="314" y="2830" width="60" height="80" as="geometry" />
        </mxCell>
        <mxCell id="4nlPYvr7-jDKzYdwGR_k-79" value="&lt;h2&gt;&lt;/h2&gt;&lt;h1&gt;Control Manager&lt;/h1&gt;&lt;h2&gt;Replication Controler&amp;nbsp;&lt;br&gt;Replicaset&lt;br&gt;Deployment&lt;br&gt;jobs&lt;br&gt;cronjobs&lt;/h2&gt;&lt;h2&gt;statefullset&lt;/h2&gt;&lt;div&gt;&lt;br&gt;&lt;/div&gt;" style="text;html=1;align=center;verticalAlign=middle;resizable=0;points=[];autosize=1;strokeColor=none;fillColor=none;" vertex="1" parent="1">
          <mxGeometry x="-390" y="2885" width="210" height="250" as="geometry" />
        </mxCell>
        <mxCell id="4nlPYvr7-jDKzYdwGR_k-80" value="&lt;h2&gt;control manager help to manage number of pods&lt;/h2&gt;" style="text;html=1;align=center;verticalAlign=middle;resizable=0;points=[];autosize=1;strokeColor=none;fillColor=none;" vertex="1" parent="1">
          <mxGeometry y="2970" width="440" height="60" as="geometry" />
        </mxCell>
        <mxCell id="4nlPYvr7-jDKzYdwGR_k-81" value="m" style="whiteSpace=wrap;html=1;" vertex="1" parent="1">
          <mxGeometry x="559.5" y="1860" width="120" height="60" as="geometry" />
        </mxCell>
        <mxCell id="4nlPYvr7-jDKzYdwGR_k-82" style="edgeStyle=orthogonalEdgeStyle;rounded=0;orthogonalLoop=1;jettySize=auto;html=1;exitX=0.5;exitY=0;exitDx=0;exitDy=0;entryX=0.633;entryY=0.975;entryDx=0;entryDy=0;entryPerimeter=0;" edge="1" parent="1" target="4nlPYvr7-jDKzYdwGR_k-81">
          <mxGeometry relative="1" as="geometry">
            <mxPoint x="634.5" y="1980" as="sourcePoint" />
          </mxGeometry>
        </mxCell>
        <mxCell id="4nlPYvr7-jDKzYdwGR_k-85" value="w" style="whiteSpace=wrap;html=1;" vertex="1" parent="1">
          <mxGeometry x="695" y="1860" width="120" height="60" as="geometry" />
        </mxCell>
        <mxCell id="4nlPYvr7-jDKzYdwGR_k-86" style="edgeStyle=orthogonalEdgeStyle;rounded=0;orthogonalLoop=1;jettySize=auto;html=1;exitX=0.5;exitY=0;exitDx=0;exitDy=0;entryX=0.633;entryY=0.975;entryDx=0;entryDy=0;entryPerimeter=0;" edge="1" parent="1" target="4nlPYvr7-jDKzYdwGR_k-85">
          <mxGeometry relative="1" as="geometry">
            <mxPoint x="770" y="1980" as="sourcePoint" />
          </mxGeometry>
        </mxCell>
        <mxCell id="4nlPYvr7-jDKzYdwGR_k-88" value="w" style="whiteSpace=wrap;html=1;" vertex="1" parent="1">
          <mxGeometry x="830" y="1860" width="120" height="50" as="geometry" />
        </mxCell>
        <mxCell id="4nlPYvr7-jDKzYdwGR_k-97" style="edgeStyle=orthogonalEdgeStyle;rounded=0;orthogonalLoop=1;jettySize=auto;html=1;exitX=0.75;exitY=0;exitDx=0;exitDy=0;entryX=0.075;entryY=1.02;entryDx=0;entryDy=0;entryPerimeter=0;" edge="1" parent="1" source="4nlPYvr7-jDKzYdwGR_k-90" target="4nlPYvr7-jDKzYdwGR_k-88">
          <mxGeometry relative="1" as="geometry" />
        </mxCell>
        <mxCell id="4nlPYvr7-jDKzYdwGR_k-90" value="node port ip" style="whiteSpace=wrap;html=1;" vertex="1" parent="1">
          <mxGeometry x="570" y="1980" width="365" height="30" as="geometry" />
        </mxCell>
        <mxCell id="4nlPYvr7-jDKzYdwGR_k-92" value="elb" style="whiteSpace=wrap;html=1;" vertex="1" parent="1">
          <mxGeometry x="520" y="1780" width="450" height="60" as="geometry" />
        </mxCell>
        <mxCell id="4nlPYvr7-jDKzYdwGR_k-93" value="M:Nodeport" style="text;html=1;align=center;verticalAlign=middle;resizable=0;points=[];autosize=1;strokeColor=none;fillColor=none;" vertex="1" parent="1">
          <mxGeometry x="575" y="1835" width="90" height="30" as="geometry" />
        </mxCell>
        <mxCell id="4nlPYvr7-jDKzYdwGR_k-94" value="w1:nodeport" style="text;html=1;align=center;verticalAlign=middle;resizable=0;points=[];autosize=1;strokeColor=none;fillColor=none;" vertex="1" parent="1">
          <mxGeometry x="710" y="1835" width="90" height="30" as="geometry" />
        </mxCell>
        <mxCell id="4nlPYvr7-jDKzYdwGR_k-95" value="w2:nodeport" style="text;html=1;align=center;verticalAlign=middle;resizable=0;points=[];autosize=1;strokeColor=none;fillColor=none;" vertex="1" parent="1">
          <mxGeometry x="845" y="1835" width="90" height="30" as="geometry" />
        </mxCell>
        <mxCell id="4nlPYvr7-jDKzYdwGR_k-98" value="app ip port" style="shape=cylinder3;whiteSpace=wrap;html=1;boundedLbl=1;backgroundOutline=1;size=15;" vertex="1" parent="1">
          <mxGeometry x="598.5" y="2030" width="60" height="70" as="geometry" />
        </mxCell>
        <mxCell id="4nlPYvr7-jDKzYdwGR_k-99" value="app ip port" style="shape=cylinder3;whiteSpace=wrap;html=1;boundedLbl=1;backgroundOutline=1;size=15;" vertex="1" parent="1">
          <mxGeometry x="731.5" y="2030" width="60" height="80" as="geometry" />
        </mxCell>
        <mxCell id="4nlPYvr7-jDKzYdwGR_k-100" value="app ip port" style="shape=cylinder3;whiteSpace=wrap;html=1;boundedLbl=1;backgroundOutline=1;size=15;" vertex="1" parent="1">
          <mxGeometry x="846.5" y="2030" width="60" height="80" as="geometry" />
        </mxCell>
        <mxCell id="4nlPYvr7-jDKzYdwGR_k-104" value="" style="endArrow=none;html=1;rounded=0;" edge="1" parent="1">
          <mxGeometry width="50" height="50" relative="1" as="geometry">
            <mxPoint x="970" y="2160" as="sourcePoint" />
            <mxPoint x="980" y="1710" as="targetPoint" />
          </mxGeometry>
        </mxCell>
        <mxCell id="4nlPYvr7-jDKzYdwGR_k-105" value="&lt;h3&gt;Port&lt;/h3&gt;" style="text;html=1;align=center;verticalAlign=middle;resizable=0;points=[];autosize=1;strokeColor=none;fillColor=none;" vertex="1" parent="1">
          <mxGeometry x="1105" y="1650" width="50" height="60" as="geometry" />
        </mxCell>
        <mxCell id="4nlPYvr7-jDKzYdwGR_k-106" value="&lt;h3&gt;target port&lt;/h3&gt;" style="text;html=1;align=center;verticalAlign=middle;resizable=0;points=[];autosize=1;strokeColor=none;fillColor=none;" vertex="1" parent="1">
          <mxGeometry x="1165" y="1650" width="90" height="60" as="geometry" />
        </mxCell>
        <mxCell id="4nlPYvr7-jDKzYdwGR_k-107" value="&lt;h3&gt;nodeport&lt;/h3&gt;" style="text;html=1;align=center;verticalAlign=middle;resizable=0;points=[];autosize=1;strokeColor=none;fillColor=none;" vertex="1" parent="1">
          <mxGeometry x="1270" y="1650" width="80" height="60" as="geometry" />
        </mxCell>
        <mxCell id="4nlPYvr7-jDKzYdwGR_k-108" value="NP" style="triangle;whiteSpace=wrap;html=1;" vertex="1" parent="1">
          <mxGeometry x="1025" y="1790" width="130" height="80" as="geometry" />
        </mxCell>
        <mxCell id="4nlPYvr7-jDKzYdwGR_k-109" value="" style="whiteSpace=wrap;html=1;" vertex="1" parent="1">
          <mxGeometry x="1180" y="1750" width="160" height="210" as="geometry" />
        </mxCell>
        <mxCell id="4nlPYvr7-jDKzYdwGR_k-110" value="continer port" style="shape=cylinder3;whiteSpace=wrap;html=1;boundedLbl=1;backgroundOutline=1;size=15;" vertex="1" parent="1">
          <mxGeometry x="1195" y="1830" width="65" height="80" as="geometry" />
        </mxCell>
        <mxCell id="4nlPYvr7-jDKzYdwGR_k-112" value="target port" style="rounded=1;whiteSpace=wrap;html=1;" vertex="1" parent="1">
          <mxGeometry x="1300" y="1770" width="40" height="60" as="geometry" />
        </mxCell>
        <mxCell id="4nlPYvr7-jDKzYdwGR_k-113" value="Pod" style="text;html=1;align=center;verticalAlign=middle;resizable=0;points=[];autosize=1;strokeColor=none;fillColor=none;" vertex="1" parent="1">
          <mxGeometry x="1220" y="1715" width="40" height="30" as="geometry" />
        </mxCell>
        <mxCell id="4nlPYvr7-jDKzYdwGR_k-115" value="cluster ip - internal communication" style="rounded=1;whiteSpace=wrap;html=1;" vertex="1" parent="1">
          <mxGeometry x="545" y="2120" width="395" height="30" as="geometry" />
        </mxCell>
        <mxCell id="4nlPYvr7-jDKzYdwGR_k-116" value="app ip port" style="shape=cylinder3;whiteSpace=wrap;html=1;boundedLbl=1;backgroundOutline=1;size=15;" vertex="1" parent="1">
          <mxGeometry x="596" y="2160" width="60" height="70" as="geometry" />
        </mxCell>
        <mxCell id="4nlPYvr7-jDKzYdwGR_k-117" value="app ip port" style="shape=cylinder3;whiteSpace=wrap;html=1;boundedLbl=1;backgroundOutline=1;size=15;" vertex="1" parent="1">
          <mxGeometry x="729" y="2160" width="60" height="80" as="geometry" />
        </mxCell>
        <mxCell id="4nlPYvr7-jDKzYdwGR_k-118" value="app ip port" style="shape=cylinder3;whiteSpace=wrap;html=1;boundedLbl=1;backgroundOutline=1;size=15;" vertex="1" parent="1">
          <mxGeometry x="844" y="2160" width="60" height="80" as="geometry" />
        </mxCell>
        <mxCell id="4nlPYvr7-jDKzYdwGR_k-119" value="&lt;h2&gt;Deployment&lt;/h2&gt;" style="text;html=1;align=center;verticalAlign=middle;resizable=0;points=[];autosize=1;strokeColor=none;fillColor=none;" vertex="1" parent="1">
          <mxGeometry x="135" y="3210" width="130" height="60" as="geometry" />
        </mxCell>
        <mxCell id="4nlPYvr7-jDKzYdwGR_k-120" value="" style="rounded=0;whiteSpace=wrap;html=1;" vertex="1" parent="1">
          <mxGeometry x="35" y="3290" width="565" height="190" as="geometry" />
        </mxCell>
        <mxCell id="4nlPYvr7-jDKzYdwGR_k-121" value="blue" style="rounded=1;whiteSpace=wrap;html=1;" vertex="1" parent="1">
          <mxGeometry x="117" y="3350" width="120" height="60" as="geometry" />
        </mxCell>
        <mxCell id="4nlPYvr7-jDKzYdwGR_k-122" value="" style="rounded=0;whiteSpace=wrap;html=1;" vertex="1" parent="1">
          <mxGeometry x="30" y="3520" width="580" height="180" as="geometry" />
        </mxCell>
        <mxCell id="4nlPYvr7-jDKzYdwGR_k-123" value="green" style="rounded=1;whiteSpace=wrap;html=1;" vertex="1" parent="1">
          <mxGeometry x="125" y="3570" width="120" height="60" as="geometry" />
        </mxCell>
        <mxCell id="4nlPYvr7-jDKzYdwGR_k-125" style="edgeStyle=orthogonalEdgeStyle;rounded=0;orthogonalLoop=1;jettySize=auto;html=1;" edge="1" parent="1" source="4nlPYvr7-jDKzYdwGR_k-124" target="4nlPYvr7-jDKzYdwGR_k-120">
          <mxGeometry relative="1" as="geometry" />
        </mxCell>
        <mxCell id="4nlPYvr7-jDKzYdwGR_k-124" value="Actor" style="shape=umlActor;verticalLabelPosition=bottom;verticalAlign=top;html=1;outlineConnect=0;" vertex="1" parent="1">
          <mxGeometry x="-230" y="3470" width="75" height="60" as="geometry" />
        </mxCell>
        <mxCell id="4nlPYvr7-jDKzYdwGR_k-126" value="&lt;h2&gt;Rolling Update&lt;/h2&gt;" style="text;html=1;align=center;verticalAlign=middle;resizable=0;points=[];autosize=1;strokeColor=none;fillColor=none;" vertex="1" parent="1">
          <mxGeometry x="100" y="3775" width="150" height="60" as="geometry" />
        </mxCell>
      </root>
    </mxGraphModel>
  </diagram>
</mxfile>
